{
    "asset" : {
        "generator" : "Khronos glTF Blender I/O v1.6.16",
        "version" : "2.0"
    },
    "scene" : 0,
    "scenes" : [
        {
            "name" : "Scene",
            "nodes" : [
                0
            ]
        }
    ],
    "nodes" : [
        {
            "mesh" : 0,
            "name" : "Leaves",
            "scale" : [
                1.7658236026763916,
                1.7658236026763916,
                1.7658236026763916
            ],
            "translation" : [
                0.045406222343444824,
                2.669694423675537,
                0.004351288080215454
            ]
        }
    ],
    "materials" : [
        {
            "doubleSided" : true,
            "name" : "Leaves",
            "pbrMetallicRoughness" : {
                "baseColorTexture" : {
                    "index" : 0
                },
                "metallicFactor" : 0,
                "roughnessFactor" : 0.5
            }
        }
    ],
    "meshes" : [
        {
            "name" : "Icosphere.008",
            "primitives" : [
                {
                    "attributes" : {
                        "POSITION" : 0,
                        "NORMAL" : 1,
                        "TEXCOORD_0" : 2
                    },
                    "indices" : 3,
                    "material" : 0
                }
            ]
        }
    ],
    "textures" : [
        {
            "sampler" : 0,
            "source" : 0
        }
    ],
    "images" : [
        {
            "mimeType" : "image/png",
            "name" : "Leaves_Color",
            "uri" : "textures/Leaves_Color.png"
        }
    ],
    "accessors" : [
        {
            "bufferView" : 0,
            "componentType" : 5126,
            "count" : 2160,
            "max" : [
                1.2882797718048096,
                1.0740162134170532,
                1.260213017463684
            ],
            "min" : [
                -1.1196835041046143,
                -0.9914673566818237,
                -1.5230979919433594
            ],
            "type" : "VEC3"
        },
        {
            "bufferView" : 1,
            "componentType" : 5126,
            "count" : 2160,
            "type" : "VEC3"
        },
        {
            "bufferView" : 2,
            "componentType" : 5126,
            "count" : 2160,
            "type" : "VEC2"
        },
        {
            "bufferView" : 3,
            "componentType" : 5123,
            "count" : 2160,
            "type" : "SCALAR"
        }
    ],
    "bufferViews" : [
        {
            "buffer" : 0,
            "byteLength" : 25920,
            "byteOffset" : 0
        },
        {
            "buffer" : 0,
            "byteLength" : 25920,
            "byteOffset" : 25920
        },
        {
            "buffer" : 0,
            "byteLength" : 17280,
            "byteOffset" : 51840
        },
        {
            "buffer" : 0,
            "byteLength" : 4320,
            "byteOffset" : 69120
        }
    ],
    "samplers" : [
        {
            "magFilter" : 9729,
            "minFilter" : 9987
        }
    ],
    "buffers" : [
        {
            "byteLength" : 73440,
            "uri" : "bins/Tree_V2.2_Leaves.bin"
        }
    ]
}
